{
  "asset" : {
    "generator" : "UE Viewer (umodel) build 1587",
    "version" : "2.0"
  },
  "scene" : 0,
  "scenes" : [
    {
      "nodes" : [ 0 ]
    }
  ],
  "nodes" : [
    {
      "name" : "Portable_Miner_Folded",
      "mesh" : 0
    }
  ],
  "materials" : [
    {
      "name" : "MM_MissingMaterial",
      "pbrMetallicRoughness" : {
        "baseColorFactor" : [ 0.3, 0.3, 0.3, 1.0 ],
        "metallicFactor" : 0.1,
        "roughnessFactor" : 0.5
      }
    },
    {
      "name" : "MM_MissingMaterial",
      "pbrMetallicRoughness" : {
        "baseColorFactor" : [ 0.9, 0.3, 0.3, 1.0 ],
        "metallicFactor" : 0.1,
        "roughnessFactor" : 0.5
      }
    },
    {
      "name" : "MM_MissingMaterial",
      "pbrMetallicRoughness" : {
        "baseColorFactor" : [ 0.3, 0.9, 0.3, 1.0 ],
        "metallicFactor" : 0.1,
        "roughnessFactor" : 0.5
      }
    },
    {
      "name" : "MM_MissingMaterial",
      "pbrMetallicRoughness" : {
        "baseColorFactor" : [ 0.3, 0.3, 0.9, 1.0 ],
        "metallicFactor" : 0.1,
        "roughnessFactor" : 0.5
      }
    },
    {
      "name" : "MM_MissingMaterial",
      "pbrMetallicRoughness" : {
        "baseColorFactor" : [ 0.9, 0.9, 0.9, 1.0 ],
        "metallicFactor" : 0.1,
        "roughnessFactor" : 0.5
      }
    }
  ],
  "meshes" : [
    {
      "primitives" : [
        {
          "attributes" : {
            "POSITION" : 1,
            "NORMAL" : 2,
            "TANGENT" : 3,
            "TEXCOORD_0" : 4
          },
          "indices" : 0,
          "material" : 0
        },
        {
          "attributes" : {
            "POSITION" : 6,
            "NORMAL" : 7,
            "TANGENT" : 8,
            "TEXCOORD_0" : 9
          },
          "indices" : 5,
          "material" : 1
        },
        {
          "attributes" : {
            "POSITION" : 11,
            "NORMAL" : 12,
            "TANGENT" : 13,
            "TEXCOORD_0" : 14
          },
          "indices" : 10,
          "material" : 2
        },
        {
          "attributes" : {
            "POSITION" : 16,
            "NORMAL" : 17,
            "TANGENT" : 18,
            "TEXCOORD_0" : 19
          },
          "indices" : 15,
          "material" : 3
        },
        {
          "attributes" : {
            "POSITION" : 21,
            "NORMAL" : 22,
            "TANGENT" : 23,
            "TEXCOORD_0" : 24
          },
          "indices" : 20,
          "material" : 4
        }
      ],
      "name" : "Portable_Miner_Folded"
    }
  ],
  "buffers" : [
    {
      "uri" : "Portable_Miner_Folded.bin",
      "byteLength" : 252380
    }
  ],
  "bufferViews" : [
    {
      "buffer" : 0,
      "byteOffset" : 0,
      "byteLength" : 14976
    },
    {
      "buffer" : 0,
      "byteOffset" : 14976,
      "byteLength" : 31536
    },
    {
      "buffer" : 0,
      "byteOffset" : 46512,
      "byteLength" : 31536
    },
    {
      "buffer" : 0,
      "byteOffset" : 78048,
      "byteLength" : 42048
    },
    {
      "buffer" : 0,
      "byteOffset" : 120096,
      "byteLength" : 21024
    },
    {
      "buffer" : 0,
      "byteOffset" : 141120,
      "byteLength" : 768
    },
    {
      "buffer" : 0,
      "byteOffset" : 141888,
      "byteLength" : 1776
    },
    {
      "buffer" : 0,
      "byteOffset" : 143664,
      "byteLength" : 1776
    },
    {
      "buffer" : 0,
      "byteOffset" : 145440,
      "byteLength" : 2368
    },
    {
      "buffer" : 0,
      "byteOffset" : 147808,
      "byteLength" : 1184
    },
    {
      "buffer" : 0,
      "byteOffset" : 148992,
      "byteLength" : 4992
    },
    {
      "buffer" : 0,
      "byteOffset" : 153984,
      "byteLength" : 10476
    },
    {
      "buffer" : 0,
      "byteOffset" : 164460,
      "byteLength" : 10476
    },
    {
      "buffer" : 0,
      "byteOffset" : 174936,
      "byteLength" : 13968
    },
    {
      "buffer" : 0,
      "byteOffset" : 188904,
      "byteLength" : 6984
    },
    {
      "buffer" : 0,
      "byteOffset" : 195888,
      "byteLength" : 7076
    },
    {
      "buffer" : 0,
      "byteOffset" : 202964,
      "byteLength" : 12192
    },
    {
      "buffer" : 0,
      "byteOffset" : 215156,
      "byteLength" : 12192
    },
    {
      "buffer" : 0,
      "byteOffset" : 227348,
      "byteLength" : 16256
    },
    {
      "buffer" : 0,
      "byteOffset" : 243604,
      "byteLength" : 8128
    },
    {
      "buffer" : 0,
      "byteOffset" : 251732,
      "byteLength" : 72
    },
    {
      "buffer" : 0,
      "byteOffset" : 251804,
      "byteLength" : 144
    },
    {
      "buffer" : 0,
      "byteOffset" : 251948,
      "byteLength" : 144
    },
    {
      "buffer" : 0,
      "byteOffset" : 252092,
      "byteLength" : 192
    },
    {
      "buffer" : 0,
      "byteOffset" : 252284,
      "byteLength" : 96
    }
  ],
  "accessors" : [
    {
      "bufferView" : 0,
      "componentType" : 5123,
      "count" : 7488,
      "type" : "SCALAR"
    },
    {
      "bufferView" : 1,
      "min" : [ -0.229823, -0.128846, -0.203931 ],
      "max" : [ 0.229823, 0.258965, 0.249786 ],
      "componentType" : 5126,
      "count" : 2628,
      "type" : "VEC3"
    },
    {
      "bufferView" : 2,
      "componentType" : 5126,
      "count" : 2628,
      "type" : "VEC3"
    },
    {
      "bufferView" : 3,
      "componentType" : 5126,
      "count" : 2628,
      "type" : "VEC4"
    },
    {
      "bufferView" : 4,
      "componentType" : 5126,
      "count" : 2628,
      "type" : "VEC2"
    },
    {
      "bufferView" : 5,
      "componentType" : 5123,
      "count" : 384,
      "type" : "SCALAR"
    },
    {
      "bufferView" : 6,
      "min" : [ -0.104475, 0.0734897, 0.216594 ],
      "max" : [ 0.104475, 0.11349, 0.220203 ],
      "componentType" : 5126,
      "count" : 148,
      "type" : "VEC3"
    },
    {
      "bufferView" : 7,
      "componentType" : 5126,
      "count" : 148,
      "type" : "VEC3"
    },
    {
      "bufferView" : 8,
      "componentType" : 5126,
      "count" : 148,
      "type" : "VEC4"
    },
    {
      "bufferView" : 9,
      "componentType" : 5126,
      "count" : 148,
      "type" : "VEC2"
    },
    {
      "bufferView" : 10,
      "componentType" : 5123,
      "count" : 2496,
      "type" : "SCALAR"
    },
    {
      "bufferView" : 11,
      "min" : [ -0.213681, -0.105226, -0.197586 ],
      "max" : [ 0.213681, 0.193156, 0.178006 ],
      "componentType" : 5126,
      "count" : 873,
      "type" : "VEC3"
    },
    {
      "bufferView" : 12,
      "componentType" : 5126,
      "count" : 873,
      "type" : "VEC3"
    },
    {
      "bufferView" : 13,
      "componentType" : 5126,
      "count" : 873,
      "type" : "VEC4"
    },
    {
      "bufferView" : 14,
      "componentType" : 5126,
      "count" : 873,
      "type" : "VEC2"
    },
    {
      "bufferView" : 15,
      "componentType" : 5123,
      "count" : 3537,
      "type" : "SCALAR"
    },
    {
      "bufferView" : 16,
      "min" : [ -0.246087, -0.102142, -0.190172 ],
      "max" : [ 0.246087, 0.233886, 0.230231 ],
      "componentType" : 5126,
      "count" : 1016,
      "type" : "VEC3"
    },
    {
      "bufferView" : 17,
      "componentType" : 5126,
      "count" : 1016,
      "type" : "VEC3"
    },
    {
      "bufferView" : 18,
      "componentType" : 5126,
      "count" : 1016,
      "type" : "VEC4"
    },
    {
      "bufferView" : 19,
      "componentType" : 5126,
      "count" : 1016,
      "type" : "VEC2"
    },
    {
      "bufferView" : 20,
      "componentType" : 5123,
      "count" : 36,
      "type" : "SCALAR"
    },
    {
      "bufferView" : 21,
      "min" : [ -0.112634, 0.0688379, 0.218327 ],
      "max" : [ 0.112634, 0.118141, 0.21847 ],
      "componentType" : 5126,
      "count" : 12,
      "type" : "VEC3"
    },
    {
      "bufferView" : 22,
      "componentType" : 5126,
      "count" : 12,
      "type" : "VEC3"
    },
    {
      "bufferView" : 23,
      "componentType" : 5126,
      "count" : 12,
      "type" : "VEC4"
    },
    {
      "bufferView" : 24,
      "componentType" : 5126,
      "count" : 12,
      "type" : "VEC2"
    }
  ]
}
