{
  "asset" : {
    "generator" : "UE Viewer (umodel) build 1587",
    "version" : "2.0"
  },
  "scene" : 0,
  "scenes" : [
    {
      "nodes" : [ 0 ]
    }
  ],
  "nodes" : [
    {
      "name" : "SK_1PportableMiner_01",
      "mesh" : 0,
      "skin" : 0,
      "children" : [ 1 ]
    },
    {
      "name" : "Root",
      "children" : [ 2 ],
      "translation" : [ 0, 0, 0 ],
      "rotation" : [ 1.11022e-16, -0, -0, 1 ]
    },
    {
      "name" : "base",
      "children" : [ 3, 5, 7 ],
      "translation" : [ 0.305344, 0.00209642, 0.0975741 ],
      "rotation" : [ -0, 0.707107, -0, -0.707107 ]
    },
    {
      "name" : "chimney_01",
      "children" : [ 4 ],
      "translation" : [ -3.02835e-05, 0.134079, 3.16465e-05 ],
      "rotation" : [ -0, 0, -0, -1 ]
    },
    {
      "name" : "chimney_02",
      "translation" : [ 1.77636e-17, 1.77636e-17, 1.42109e-16 ],
      "rotation" : [ -0, 0, -0, -1 ]
    },
    {
      "name" : "handle_l",
      "children" : [ 6 ],
      "translation" : [ -0.0833972, -0.0871951, -0.243662 ],
      "rotation" : [ -0.377972, -0.144527, 0.0598649, -0.912505 ]
    },
    {
      "name" : "handle_l_top",
      "translation" : [ -1.77636e-16, 0.0109387, -0.105061 ],
      "rotation" : [ 0.382683, 3.11521e-17, 2.39223e-17, -0.92388 ]
    },
    {
      "name" : "handle_r",
      "children" : [ 8 ],
      "translation" : [ -0.0757847, -0.0871626, 0.246115 ],
      "rotation" : [ -0.201034, -0.552337, -0.2767, -0.760227 ]
    },
    {
      "name" : "handle_r_top",
      "translation" : [ 0.00403069, 0.105611, 5.16254e-17 ],
      "rotation" : [ 1.86473e-17, -6.58608e-17, 0.34202, -0.939693 ]
    }
  ],
  "skins" : [
    {
      "inverseBindMatrices" : 0,
      "skeleton" : 1,
      "joints" : [
        1,2,3,4,5,6,7,8
      ]
    }
  ],
  "materials" : [
    {
      "name" : "MI_PortableMiner_01",
      "pbrMetallicRoughness" : {
        "baseColorFactor" : [ 0.3, 0.3, 0.3, 1.0 ],
        "metallicFactor" : 0.1,
        "roughnessFactor" : 0.5
      }
    }
  ],
  "meshes" : [
    {
      "primitives" : [
        {
          "attributes" : {
            "POSITION" : 2,
            "NORMAL" : 3,
            "TANGENT" : 4,
            "JOINTS_0" : 5,
            "WEIGHTS_0" : 6,
            "TEXCOORD_0" : 7
          },
          "indices" : 1,
          "material" : 0
        }
      ],
      "name" : "SK_1PportableMiner_01"
    }
  ],
  "buffers" : [
    {
      "uri" : "SK_1PportableMiner_01.bin",
      "byteLength" : 1321780
    }
  ],
  "bufferViews" : [
    {
      "buffer" : 0,
      "byteOffset" : 0,
      "byteLength" : 512
    },
    {
      "buffer" : 0,
      "byteOffset" : 512,
      "byteLength" : 137108
    },
    {
      "buffer" : 0,
      "byteOffset" : 137620,
      "byteLength" : 236832
    },
    {
      "buffer" : 0,
      "byteOffset" : 374452,
      "byteLength" : 236832
    },
    {
      "buffer" : 0,
      "byteOffset" : 611284,
      "byteLength" : 315776
    },
    {
      "buffer" : 0,
      "byteOffset" : 927060,
      "byteLength" : 157888
    },
    {
      "buffer" : 0,
      "byteOffset" : 1084948,
      "byteLength" : 78944
    },
    {
      "buffer" : 0,
      "byteOffset" : 1163892,
      "byteLength" : 157888
    }
  ],
  "accessors" : [
    {
      "bufferView" : 0,
      "componentType" : 5126,
      "count" : 8,
      "type" : "MAT4"
    },
    {
      "bufferView" : 1,
      "componentType" : 5123,
      "count" : 68553,
      "type" : "SCALAR"
    },
    {
      "bufferView" : 2,
      "min" : [ -0.0492277, -0.553511, -0.211813 ],
      "max" : [ 0.657666, 0.193931, 0.446356 ],
      "componentType" : 5126,
      "count" : 19736,
      "type" : "VEC3"
    },
    {
      "bufferView" : 3,
      "componentType" : 5126,
      "count" : 19736,
      "type" : "VEC3"
    },
    {
      "bufferView" : 4,
      "componentType" : 5126,
      "count" : 19736,
      "type" : "VEC4"
    },
    {
      "bufferView" : 5,
      "componentType" : 5123,
      "count" : 19736,
      "type" : "VEC4"
    },
    {
      "bufferView" : 6,
      "normalized" : true,
      "componentType" : 5121,
      "count" : 19736,
      "type" : "VEC4"
    },
    {
      "bufferView" : 7,
      "componentType" : 5126,
      "count" : 19736,
      "type" : "VEC2"
    }
  ]
}
