{
  "asset" : {
    "generator" : "UE Viewer (umodel) build 1587",
    "version" : "2.0"
  },
  "scene" : 0,
  "scenes" : [
    {
      "nodes" : [ 0 ]
    }
  ],
  "nodes" : [
    {
      "name" : "SK_PortableMiner_01",
      "mesh" : 0,
      "skin" : 0,
      "children" : [ 1 ]
    },
    {
      "name" : "root",
      "children" : [ 2 ],
      "translation" : [ 0, 0, 0 ],
      "rotation" : [ 1.41638e-16, -0, -0, 1 ]
    },
    {
      "name" : "pelvis",
      "children" : [ 3, 85, 88, 91, 94, 97 ],
      "translation" : [ -1.16969e-21, 0.0541363, -3.31489e-18 ],
      "rotation" : [ -0.500013, -0.499987, -0.499987, -0.500013 ]
    },
    {
      "name" : "drillrotatorbase",
      "children" : [ 4, 5, 6, 7, 8, 9 ],
      "translation" : [ 5.68434e-16, 1.76818e-22, 2.80576e-15 ],
      "rotation" : [ 2.61894e-08, -2.58493e-05, -2.61894e-08, -1 ]
    },
    {
      "name" : "Oreholder_01",
      "translation" : [ 0.0606206, -0.000189974, 0.238606 ],
      "rotation" : [ 2.23355e-17, 0.777146, 2.00044e-17, -0.62932 ]
    },
    {
      "name" : "Oreholder_02",
      "translation" : [ 0.0606206, -0.226987, 0.0735527 ],
      "rotation" : [ -0.369905, 0.628724, 0.456795, -0.509131 ]
    },
    {
      "name" : "Oreholder_03",
      "translation" : [ 0.0606206, -0.140096, -0.193148 ],
      "rotation" : [ -0.598519, 0.240151, 0.73911, -0.194471 ]
    },
    {
      "name" : "Oreholder_04",
      "translation" : [ 0.0606206, 0.140403, -0.192925 ],
      "rotation" : [ -0.598519, -0.240151, 0.73911, 0.194471 ]
    },
    {
      "name" : "Oreholder_05",
      "translation" : [ 0.0606206, 0.226869, 0.073914 ],
      "rotation" : [ 0.369905, 0.628724, -0.456795, -0.509131 ]
    },
    {
      "name" : "spine_01",
      "children" : [ 10 ],
      "translation" : [ 0.699833, -3.66573e-08, 3.61804e-05 ],
      "rotation" : [ -2.61901e-08, 2.077e-41, 7.93042e-34, -1 ]
    },
    {
      "name" : "spine_02",
      "children" : [ 11, 13, 28, 42, 56, 71 ],
      "translation" : [ 0.28511, -2.49826e-16, -7.36935e-14 ],
      "rotation" : [ 2.10164e-39, -0, -0, -1 ]
    },
    {
      "name" : "chimney_01",
      "children" : [ 12 ],
      "translation" : [ 0.159815, 2.05667e-16, -4.13865e-14 ],
      "rotation" : [ 2.10164e-39, -0, -0, -1 ]
    },
    {
      "name" : "chimney_03",
      "translation" : [ 0.0711893, -1.26522e-17, -1.84355e-14 ],
      "rotation" : [ 2.10164e-39, -0, -0, -1 ]
    },
    {
      "name" : "outerleg_01_base_01",
      "children" : [ 14, 23, 25, 27 ],
      "translation" : [ -3.35663e-06, 1.96705e-08, -0.237402 ],
      "rotation" : [ 1.85192e-08, 0.707107, -1.85192e-08, -0.707107 ]
    },
    {
      "name" : "outerleg_01_ext_01",
      "children" : [ 15, 20, 21, 22 ],
      "translation" : [ -0.344231, -3.09995e-17, -3.50922e-06 ],
      "rotation" : [ -0, -0, -2.4187e-33, -1 ]
    },
    {
      "name" : "outerleg_01_ext_base",
      "children" : [ 16 ],
      "translation" : [ -7.10543e-17, 0, 2.84217e-16 ],
      "rotation" : [ 0, -1.2326e-32, 4.68851e-32, -1 ]
    },
    {
      "name" : "outerleg_01_ext_02",
      "children" : [ 17 ],
      "translation" : [ -0.088314, -1.61749e-15, 0.675703 ],
      "rotation" : [ 0, 6.16298e-33, -1.47447e-32, -1 ]
    },
    {
      "name" : "outerleg_01_ext_03",
      "children" : [ 18 ],
      "translation" : [ -0.0713985, -7.47356e-16, 0.605411 ],
      "rotation" : [ 0, 1.84889e-32, -6.40485e-32, -1 ]
    },
    {
      "name" : "outerleg_01_ext_04",
      "children" : [ 19 ],
      "translation" : [ -0.0344672, -3.60836e-16, 0.292258 ],
      "rotation" : [ -0, -0, -2.4187e-33, -1 ]
    },
    {
      "name" : "outerleg_01_ext_05",
      "translation" : [ -0.130539, -5.08234e-17, 0.089342 ],
      "rotation" : [ -0, -0, -2.4187e-33, -1 ]
    },
    {
      "name" : "outerleg_01_handle",
      "translation" : [ -0.101938, -2.5178e-16, 0.200551 ],
      "rotation" : [ -0, -0, -2.4187e-33, -1 ]
    },
    {
      "name" : "outerleg_01_eyelid",
      "translation" : [ -0.101938, -2.3535e-16, 0.187163 ],
      "rotation" : [ 0, -1.2326e-32, 4.68851e-32, -1 ]
    },
    {
      "name" : "outerleg_01_eyelid_02",
      "translation" : [ -0.101938, -1.73061e-13, 0.200551 ],
      "rotation" : [ 4.43091e-41, 1.12231e-16, -3.94808e-25, -1 ]
    },
    {
      "name" : "outerleg_01_base_aim_02",
      "children" : [ 24 ],
      "translation" : [ 0, 5.29396e-25, -0 ],
      "rotation" : [ -1.30545e-41, 1.47716e-12, 8.83761e-30, -1 ]
    },
    {
      "name" : "outerleg_01_ext_01_aim",
      "translation" : [ -0.344231, -3.09995e-17, -3.50921e-06 ],
      "rotation" : [ -0, -0, -9.40585e-35, -1 ]
    },
    {
      "name" : "outerleg_01_shoulder_aim",
      "children" : [ 26 ],
      "translation" : [ -3.55271e-17, 1.05879e-24, 1.42109e-16 ],
      "rotation" : [ -0, -0, -2.4187e-33, -1 ]
    },
    {
      "name" : "outerleg_01_shoulder",
      "translation" : [ -0.314318, -8.67866e-17, -0.326781 ],
      "rotation" : [ -0, -0, -2.4187e-33, -1 ]
    },
    {
      "name" : "outerleg_01_shoulder_aim_02_01",
      "translation" : [ -0.314318, -8.67866e-17, -0.326781 ],
      "rotation" : [ -0, -0, -2.4187e-33, -1 ]
    },
    {
      "name" : "outerleg_02_base_01",
      "children" : [ 29, 37, 39, 41 ],
      "translation" : [ -3.35663e-06, 0.225749, -0.0733864 ],
      "rotation" : [ -0.415627, 0.572061, 0.415627, -0.572061 ]
    },
    {
      "name" : "outerleg_02_ext_01",
      "children" : [ 30, 35, 36 ],
      "translation" : [ -0.344231, 5.32933e-17, -3.50922e-06 ],
      "rotation" : [ 4.93038e-32, 1.2326e-32, -6.33737e-32, -1 ]
    },
    {
      "name" : "outerleg_02_ext_base",
      "children" : [ 31 ],
      "translation" : [ -3.55271e-16, 3.55271e-17, -2.84217e-16 ],
      "rotation" : [ -4.93038e-32, -0, -6.33737e-32, -1 ]
    },
    {
      "name" : "outerleg_02_ext_02",
      "children" : [ 32 ],
      "translation" : [ -0.088314, -1.98362e-15, 0.675703 ],
      "rotation" : [ 4.93038e-32, 1.2326e-32, -6.33737e-32, -1 ]
    },
    {
      "name" : "outerleg_02_ext_03",
      "children" : [ 33 ],
      "translation" : [ -0.0713985, -1.1509e-15, 0.605411 ],
      "rotation" : [ 1.47911e-31, 3.69779e-32, -6.33737e-32, -1 ]
    },
    {
      "name" : "outerleg_02_ext_04",
      "children" : [ 34 ],
      "translation" : [ -0.0344672, -2.83633e-16, 0.292258 ],
      "rotation" : [ 4.93038e-32, 1.2326e-32, -6.33737e-32, -1 ]
    },
    {
      "name" : "outerleg_02_ext_05",
      "translation" : [ -0.130539, -1.71566e-16, 0.089342 ],
      "rotation" : [ 4.93038e-32, 1.2326e-32, -6.33737e-32, -1 ]
    },
    {
      "name" : "outerleg_02_handle",
      "translation" : [ -0.101938, -3.59037e-16, 0.200551 ],
      "rotation" : [ 4.93038e-32, 1.2326e-32, -6.33737e-32, -1 ]
    },
    {
      "name" : "outerleg_02_eyelid",
      "translation" : [ -0.101938, -4.20353e-16, 0.187163 ],
      "rotation" : [ -4.93038e-32, -0, -6.33737e-32, -1 ]
    },
    {
      "name" : "outerleg_02_base_aim_02",
      "children" : [ 38 ],
      "translation" : [ 3.55271e-17, -2.66454e-17, 4.26326e-16 ],
      "rotation" : [ -3.79646e-11, 1.25792e-27, -6.33738e-32, -1 ]
    },
    {
      "name" : "outerleg_02_ext_01_aim",
      "translation" : [ -0.344231, -1.86514e-16, -3.50922e-06 ],
      "rotation" : [ 6.46235e-27, 6.16298e-32, 6.61548e-27, -1 ]
    },
    {
      "name" : "outerleg_02_shoulder_aim",
      "children" : [ 40 ],
      "translation" : [ 3.55271e-17, -1.77636e-17, 5.68434e-16 ],
      "rotation" : [ 4.93038e-32, 1.2326e-32, -6.33737e-32, -1 ]
    },
    {
      "name" : "outerleg_02_shoulder",
      "translation" : [ -0.314318, 9.55813e-17, -0.326781 ],
      "rotation" : [ 4.93038e-32, 1.2326e-32, -6.33737e-32, -1 ]
    },
    {
      "name" : "outerleg_02_shoulder_aim_02_01",
      "translation" : [ -0.314318, 1.48872e-16, -0.326781 ],
      "rotation" : [ 4.93038e-32, 1.2326e-32, -6.33737e-32, -1 ]
    },
    {
      "name" : "outerleg_03_base_01",
      "children" : [ 43, 51, 53, 55 ],
      "translation" : [ -3.35663e-06, 0.13952, 0.191997 ],
      "rotation" : [ -0.672499, 0.218508, 0.672499, -0.218508 ]
    },
    {
      "name" : "outerleg_03_ext_01",
      "children" : [ 44, 49, 50 ],
      "translation" : [ -0.344231, 7.10537e-17, -3.50922e-06 ],
      "rotation" : [ 1.2326e-32, 0, -7.96632e-33, -1 ]
    },
    {
      "name" : "outerleg_03_ext_base",
      "children" : [ 45 ],
      "translation" : [ -2.84217e-16, 0, -7.10543e-16 ],
      "rotation" : [ 0, 6.16298e-33, -7.96632e-33, -1 ]
    },
    {
      "name" : "outerleg_03_ext_02",
      "children" : [ 46 ],
      "translation" : [ -0.088314, -1.59664e-15, 0.675703 ],
      "rotation" : [ 1.2326e-32, -1.2326e-32, -7.96632e-33, -1 ]
    },
    {
      "name" : "outerleg_03_ext_03",
      "children" : [ 47 ],
      "translation" : [ -0.0713985, -6.48712e-16, 0.605411 ],
      "rotation" : [ 1.2326e-32, 0, -7.96632e-33, -1 ]
    },
    {
      "name" : "outerleg_03_ext_04",
      "children" : [ 48 ],
      "translation" : [ -0.0344672, -3.08273e-16, 0.292258 ],
      "rotation" : [ 1.2326e-32, 0, -7.96632e-33, -1 ]
    },
    {
      "name" : "outerleg_03_ext_05",
      "translation" : [ -0.130539, 8.54216e-17, 0.089342 ],
      "rotation" : [ 1.2326e-32, 0, -7.96632e-33, -1 ]
    },
    {
      "name" : "outerleg_03_handle",
      "translation" : [ -0.101938, -2.51966e-16, 0.200551 ],
      "rotation" : [ 1.2326e-32, 0, -7.96632e-33, -1 ]
    },
    {
      "name" : "outerleg_03_eyelid",
      "translation" : [ -0.101938, -4.67282e-16, 0.187163 ],
      "rotation" : [ 1.2326e-32, 6.16298e-33, -7.96632e-33, -1 ]
    },
    {
      "name" : "outerleg_03_base_aim_02",
      "children" : [ 52 ],
      "translation" : [ 1.42109e-16, 0, 2.84217e-16 ],
      "rotation" : [ -4.44089e-16, 7.14492e-12, -4.32198e-27, -1 ]
    },
    {
      "name" : "outerleg_03_ext_01_aim",
      "translation" : [ -0.344231, -3.68142e-21, -3.50922e-06 ],
      "rotation" : [ -4.037e-28, -8.07794e-28, -7.495e-27, -1 ]
    },
    {
      "name" : "outerleg_03_shoulder_aim",
      "children" : [ 54 ],
      "translation" : [ 1.42109e-16, -7.10543e-17, 1.42109e-16 ],
      "rotation" : [ 1.2326e-32, 0, -7.96632e-33, -1 ]
    },
    {
      "name" : "outerleg_03_shoulder",
      "translation" : [ -0.314318, 5.40309e-17, -0.326781 ],
      "rotation" : [ 1.2326e-32, 0, -7.96632e-33, -1 ]
    },
    {
      "name" : "outerleg_03_shoulder_aim_02_01",
      "translation" : [ -0.314318, -3.0124e-16, -0.326781 ],
      "rotation" : [ 1.2326e-32, 0, -7.96632e-33, -1 ]
    },
    {
      "name" : "outerleg_04_base_01",
      "children" : [ 57, 66, 68, 70 ],
      "translation" : [ -3.35663e-06, -0.13952, 0.191997 ],
      "rotation" : [ -0.672499, -0.218508, 0.672499, 0.218508 ]
    },
    {
      "name" : "outerleg_04_ext_01",
      "children" : [ 58, 63, 64, 65 ],
      "translation" : [ -0.344231, -1.59873e-16, -3.50922e-06 ],
      "rotation" : [ 0, 6.16298e-33, -7.96632e-33, -1 ]
    },
    {
      "name" : "outerleg_04_ext_base",
      "children" : [ 59 ],
      "translation" : [ -1.42109e-16, -1.42109e-16, -1.42109e-16 ],
      "rotation" : [ 2.46519e-32, 1.2326e-32, -7.96632e-33, -1 ]
    },
    {
      "name" : "outerleg_04_ext_02",
      "children" : [ 60 ],
      "translation" : [ -0.088314, -1.52559e-15, 0.675703 ],
      "rotation" : [ 1.2326e-32, -0, 2.77556e-17, -1 ]
    },
    {
      "name" : "outerleg_04_ext_03",
      "children" : [ 61 ],
      "translation" : [ -0.0713985, -7.19767e-16, 0.605411 ],
      "rotation" : [ -3.69779e-32, -6.16298e-33, -2.77556e-17, -1 ]
    },
    {
      "name" : "outerleg_04_ext_04",
      "children" : [ 62 ],
      "translation" : [ -0.0344672, -3.08273e-16, 0.292258 ],
      "rotation" : [ 0, 6.16298e-33, -7.96632e-33, -1 ]
    },
    {
      "name" : "outerleg_04_ext_05",
      "translation" : [ -0.130539, -1.98796e-16, 0.089342 ],
      "rotation" : [ 0, 6.16298e-33, -7.96632e-33, -1 ]
    },
    {
      "name" : "outerleg_04_handle",
      "translation" : [ -0.101938, -1.45385e-16, 0.200551 ],
      "rotation" : [ 0, 6.16298e-33, -7.96632e-33, -1 ]
    },
    {
      "name" : "outerleg_04_eyelid",
      "translation" : [ -0.101938, -2.18592e-16, 0.187163 ],
      "rotation" : [ -0, 3.69779e-32, 2.77556e-17, -1 ]
    },
    {
      "name" : "outerleg_04_eyelid_02",
      "translation" : [ -0.101938, -1.73234e-13, 0.200551 ],
      "rotation" : [ 1.11022e-16, 2.15704e-32, 2.77556e-17, -1 ]
    },
    {
      "name" : "outerleg_04_base_aim_02",
      "children" : [ 67 ],
      "translation" : [ 1.42109e-16, 0, 2.84217e-16 ],
      "rotation" : [ 4.55574e-11, 2.50463e-27, -7.9662e-33, -1 ]
    },
    {
      "name" : "outerleg_04_ext_01_aim",
      "translation" : [ -0.344231, 2.66451e-16, -3.50922e-06 ],
      "rotation" : [ 0, -3.2312e-27, 4.51364e-27, -1 ]
    },
    {
      "name" : "outerleg_04_shoulder_aim",
      "children" : [ 69 ],
      "translation" : [ 0, 0, 1.42109e-16 ],
      "rotation" : [ 0, 6.16298e-33, -7.96632e-33, -1 ]
    },
    {
      "name" : "outerleg_04_shoulder",
      "translation" : [ -0.314318, -3.47869e-17, -0.326781 ],
      "rotation" : [ 0, 6.16298e-33, -7.96632e-33, -1 ]
    },
    {
      "name" : "outerleg_04_shoulder_aim_02_01",
      "translation" : [ -0.314318, -1.76895e-16, -0.326781 ],
      "rotation" : [ 0, 6.16298e-33, -7.96632e-33, -1 ]
    },
    {
      "name" : "outerleg_05_base_01",
      "children" : [ 72, 80, 82, 84 ],
      "translation" : [ -3.35663e-06, -0.225749, -0.0733863 ],
      "rotation" : [ 0.415627, 0.572061, -0.415627, -0.572061 ]
    },
    {
      "name" : "outerleg_05_ext_01",
      "children" : [ 73, 78, 79 ],
      "translation" : [ -0.344231, 1.77295e-21, -3.50922e-06 ],
      "rotation" : [ 4.93038e-32, -0, 2.75987e-32, -1 ]
    },
    {
      "name" : "outerleg_05_ext_base",
      "children" : [ 74 ],
      "translation" : [ -7.10543e-17, 7.10543e-17, -2.84217e-16 ],
      "rotation" : [ 4.93038e-32, -0, 2.75987e-32, -1 ]
    },
    {
      "name" : "outerleg_05_ext_02",
      "children" : [ 75 ],
      "translation" : [ -0.088314, -1.94017e-15, 0.675703 ],
      "rotation" : [ 4.93038e-32, -0, 2.75987e-32, -1 ]
    },
    {
      "name" : "outerleg_05_ext_03",
      "children" : [ 76 ],
      "translation" : [ -0.0713985, -9.80943e-16, 0.605411 ],
      "rotation" : [ 4.93038e-32, -0, 2.75987e-32, -1 ]
    },
    {
      "name" : "outerleg_05_ext_04",
      "children" : [ 77 ],
      "translation" : [ -0.0344672, -5.7401e-16, 0.292258 ],
      "rotation" : [ 4.93038e-32, -0, 2.75987e-32, -1 ]
    },
    {
      "name" : "outerleg_05_ext_05",
      "translation" : [ -0.130539, -1.16201e-16, 0.089342 ],
      "rotation" : [ 4.93038e-32, -0, 2.75987e-32, -1 ]
    },
    {
      "name" : "outerleg_05_handle",
      "translation" : [ -0.101938, -3.8556e-16, 0.200551 ],
      "rotation" : [ 4.93038e-32, -0, 2.75987e-32, -1 ]
    },
    {
      "name" : "outerleg_05_eyelid",
      "translation" : [ -0.101938, -3.43267e-16, 0.187163 ],
      "rotation" : [ 4.93038e-32, -0, 2.75987e-32, -1 ]
    },
    {
      "name" : "outerleg_05_base_aim_02",
      "children" : [ 81 ],
      "translation" : [ -1.06581e-16, -2.66454e-17, 1.42109e-16 ],
      "rotation" : [ -7.59315e-12, 3.67394e-16, -2.78946e-27, -1 ]
    },
    {
      "name" : "outerleg_05_ext_01_aim",
      "translation" : [ -0.344231, 4.44094e-17, -3.50922e-06 ],
      "rotation" : [ -0, -6.40949e-31, -6.40856e-27, -1 ]
    },
    {
      "name" : "outerleg_05_shoulder_aim",
      "children" : [ 83 ],
      "translation" : [ -2.4869e-16, -6.21725e-17, -0 ],
      "rotation" : [ 4.93038e-32, -0, 2.75987e-32, -1 ]
    },
    {
      "name" : "outerleg_05_shoulder",
      "translation" : [ -0.314318, 1.56248e-16, -0.326781 ],
      "rotation" : [ 4.93038e-32, -0, 2.75987e-32, -1 ]
    },
    {
      "name" : "outerleg_05_shoulder_aim_02_01",
      "translation" : [ -0.314318, 2.30212e-17, -0.326781 ],
      "rotation" : [ 4.93038e-32, -0, 2.75987e-32, -1 ]
    },
    {
      "name" : "lowerleg_01_01",
      "children" : [ 86 ],
      "translation" : [ 1.59224e-05, 8.07245e-09, 0.307985 ],
      "rotation" : [ -2.16185e-09, 0.747157, -3.69742e-08, -0.664647 ]
    },
    {
      "name" : "lowerleg_01_02",
      "children" : [ 87 ],
      "translation" : [ -3.55271e-17, 1.05879e-24, -0 ],
      "rotation" : [ -6.16298e-33, -0, -6.93335e-33, -1 ]
    },
    {
      "name" : "lowerleg_01_03",
      "translation" : [ 0.285778, 3.48916e-18, -8.88178e-17 ],
      "rotation" : [ -6.16298e-33, -0, -6.93335e-33, -1 ]
    },
    {
      "name" : "lowerleg_02_01",
      "children" : [ 89 ],
      "translation" : [ 4.93565e-06, -0.292911, 0.0951727 ],
      "rotation" : [ -0.39065, 0.604459, 0.439185, -0.537715 ]
    },
    {
      "name" : "lowerleg_02_02",
      "children" : [ 90 ],
      "translation" : [ -1.42109e-16, 1.77636e-17, 1.77636e-17 ],
      "rotation" : [ -9.93582e-20, -3.30763e-36, -3.329e-17, -1 ]
    },
    {
      "name" : "lowerleg_02_03",
      "translation" : [ 0.285778, -1.42745e-16, 2.4869e-16 ],
      "rotation" : [ -9.93582e-20, -3.30763e-36, -3.329e-17, -1 ]
    },
    {
      "name" : "lowerleg_03_01",
      "children" : [ 92 ],
      "translation" : [ -1.2851e-05, -0.180828, -0.249311 ],
      "rotation" : [ -0.631989, 0.231195, 0.710522, -0.205663 ]
    },
    {
      "name" : "lowerleg_03_02",
      "children" : [ 93 ],
      "translation" : [ -3.55271e-17, -1.77636e-17, -3.55271e-17 ],
      "rotation" : [ 9.10799e-18, -5.5584e-34, 6.10277e-17, -1 ]
    },
    {
      "name" : "lowerleg_03_03",
      "translation" : [ 0.285778, -3.07046e-16, 1.59872e-16 ],
      "rotation" : [ 9.10799e-18, -5.5584e-34, 6.10277e-17, -1 ]
    },
    {
      "name" : "lowerleg_04_04",
      "children" : [ 95 ],
      "translation" : [ -1.28699e-05, 0.180828, -0.249311 ],
      "rotation" : [ -0.631989, -0.231195, 0.710522, 0.205663 ]
    },
    {
      "name" : "lowerleg_04_02",
      "children" : [ 96 ],
      "translation" : [ 0, -5.32907e-17, 1.77636e-17 ],
      "rotation" : [ -4.40912e-18, -1.76372e-34, -4.00017e-17, -1 ]
    },
    {
      "name" : "lowerleg_04_03",
      "translation" : [ 0.285778, 4.26079e-14, -6.91047e-10 ],
      "rotation" : [ -4.40912e-18, -1.76372e-34, -4.00017e-17, -1 ]
    },
    {
      "name" : "lowerleg_05_01",
      "children" : [ 98 ],
      "translation" : [ 4.90496e-06, 0.292911, 0.0951727 ],
      "rotation" : [ 0.39065, 0.604459, -0.439185, -0.537715 ]
    },
    {
      "name" : "lowerleg_05_02",
      "children" : [ 99 ],
      "translation" : [ 0, 0, -0 ],
      "rotation" : [ 5.01144e-19, 6.93889e-18, 1.24071e-17, -1 ]
    },
    {
      "name" : "lowerleg_05_03",
      "translation" : [ 0.285778, -1.98691e-16, -0 ],
      "rotation" : [ 5.01144e-19, 6.93889e-18, 1.24071e-17, -1 ]
    }
  ],
  "skins" : [
    {
      "inverseBindMatrices" : 0,
      "skeleton" : 1,
      "joints" : [
        1,2,3,4,5,6,7,8,9,10,11,12,13,14,15,16,17,18,19,20,21,22,23,24,25,26,27,28,29,30,31,32,
        33,34,35,36,37,38,39,40,41,42,43,44,45,46,47,48,49,50,51,52,53,54,55,56,57,58,59,60,61,62,63,64,
        65,66,67,68,69,70,71,72,73,74,75,76,77,78,79,80,81,82,83,84,85,86,87,88,89,90,91,92,93,94,95,96,
        97,98,99
      ]
    }
  ],
  "materials" : [
    {
      "name" : "MI_PortableMiner_01",
      "pbrMetallicRoughness" : {
        "baseColorFactor" : [ 0.3, 0.3, 0.3, 1.0 ],
        "metallicFactor" : 0.1,
        "roughnessFactor" : 0.5
      }
    }
  ],
  "meshes" : [
    {
      "primitives" : [
        {
          "attributes" : {
            "POSITION" : 2,
            "NORMAL" : 3,
            "TANGENT" : 4,
            "JOINTS_0" : 5,
            "WEIGHTS_0" : 6,
            "TEXCOORD_0" : 7
          },
          "indices" : 1,
          "material" : 0
        }
      ],
      "name" : "SK_PortableMiner_01"
    }
  ],
  "buffers" : [
    {
      "uri" : "SK_PortableMiner_01.bin",
      "byteLength" : 1884468
    }
  ],
  "bufferViews" : [
    {
      "buffer" : 0,
      "byteOffset" : 0,
      "byteLength" : 6336
    },
    {
      "buffer" : 0,
      "byteOffset" : 6336,
      "byteLength" : 191172
    },
    {
      "buffer" : 0,
      "byteOffset" : 197508,
      "byteLength" : 337392
    },
    {
      "buffer" : 0,
      "byteOffset" : 534900,
      "byteLength" : 337392
    },
    {
      "buffer" : 0,
      "byteOffset" : 872292,
      "byteLength" : 449856
    },
    {
      "buffer" : 0,
      "byteOffset" : 1322148,
      "byteLength" : 224928
    },
    {
      "buffer" : 0,
      "byteOffset" : 1547076,
      "byteLength" : 112464
    },
    {
      "buffer" : 0,
      "byteOffset" : 1659540,
      "byteLength" : 224928
    }
  ],
  "accessors" : [
    {
      "bufferView" : 0,
      "componentType" : 5126,
      "count" : 99,
      "type" : "MAT4"
    },
    {
      "bufferView" : 1,
      "componentType" : 5123,
      "count" : 95586,
      "type" : "SCALAR"
    },
    {
      "bufferView" : 2,
      "min" : [ -1.07074, -0.658294, -1.0242 ],
      "max" : [ 0.877401, 1.40946, 1.02418 ],
      "componentType" : 5126,
      "count" : 28116,
      "type" : "VEC3"
    },
    {
      "bufferView" : 3,
      "componentType" : 5126,
      "count" : 28116,
      "type" : "VEC3"
    },
    {
      "bufferView" : 4,
      "componentType" : 5126,
      "count" : 28116,
      "type" : "VEC4"
    },
    {
      "bufferView" : 5,
      "componentType" : 5123,
      "count" : 28116,
      "type" : "VEC4"
    },
    {
      "bufferView" : 6,
      "normalized" : true,
      "componentType" : 5121,
      "count" : 28116,
      "type" : "VEC4"
    },
    {
      "bufferView" : 7,
      "componentType" : 5126,
      "count" : 28116,
      "type" : "VEC2"
    }
  ]
}
